<svg height="19" viewBox="0 0 30 19" width="30" xmlns="http://www.w3.org/2000/svg"><path d="m49.367237 34.576282c-.82405 1.427297-22.140189 13.734175-23.78829 13.734175s-22.9642395-12.306878-23.7882901-13.734176c-.82405051-1.427297-.8240504-26.0410535.0000001-27.4683509.8240506-1.4272974 22.140189-13.7341756 23.78829-13.7341756s22.96424 12.3068784 23.78829 13.7341758c.824051 1.4272974.824051 26.0410537 0 27.4683517z" fill="#999" transform="matrix(.57716453 0 0 .31650328 .236739 2.944845)"/><path d="m49.367237 34.576282c-.82405 1.427297-22.140189 13.734175-23.78829 13.734175s-22.9642395-12.306878-23.7882901-13.734176c-.82405051-1.427297-.8240504-26.0410535.0000001-27.4683509.8240506-1.4272974 22.140189-13.7341756 23.78829-13.7341756s22.96424 12.3068784 23.78829 13.7341758c.824051 1.4272974.824051 26.0410537 0 27.4683517z" fill="#9f1a17" transform="matrix(.52546863 0 0 .26545702 1.559066 4.008757)"/></svg>