<svg height="26" viewBox="0 0 42 26" width="42" xmlns="http://www.w3.org/2000/svg"><path d="m49.367237 34.576282c-.82405 1.427297-22.140189 13.734175-23.78829 13.734175s-22.9642395-12.306878-23.7882901-13.734176c-.82405051-1.427297-.8240504-26.0410535.0000001-27.4683509.8240506-1.4272974 22.140189-13.7341756 23.78829-13.7341756s22.96424 12.3068784 23.78829 13.7341758c.824051 1.4272974.824051 26.0410537 0 27.4683517z" fill="#fff" transform="matrix(.80255481 0 0 .44010193 .471493 3.853665)"/><path d="m49.367237 34.576282c-.82405 1.427297-22.140189 13.734175-23.78829 13.734175s-22.9642395-12.306878-23.7882901-13.734176c-.82405051-1.427297-.8240504-26.0410535.0000001-27.4683509.8240506-1.4272974 22.140189-13.7341756 23.78829-13.7341756s22.96424 12.3068784 23.78829 13.7341758c.824051 1.4272974.824051 26.0410537 0 27.4683517z" fill="#309302" transform="matrix(.73067099 0 0 .36912143 2.310205 5.333047)"/></svg>